<?xml version="1.0" encoding="utf-8" standalone="no"?>
<!DOCTYPE svg PUBLIC "-//W3C//DTD SVG 1.1//EN"
  "http://www.w3.org/Graphics/SVG/1.1/DTD/svg11.dtd">
<svg xmlns:xlink="http://www.w3.org/1999/xlink" width="576pt" height="216pt" viewBox="0 0 576 216" xmlns="http://www.w3.org/2000/svg" version="1.1">
 <metadata>
  <rdf:RDF xmlns:dc="http://purl.org/dc/elements/1.1/" xmlns:cc="http://creativecommons.org/ns#" xmlns:rdf="http://www.w3.org/1999/02/22-rdf-syntax-ns#">
   <cc:Work>
    <dc:type rdf:resource="http://purl.org/dc/dcmitype/StillImage"/>
    <dc:date>2022-06-13T14:42:22.591434</dc:date>
    <dc:format>image/svg+xml</dc:format>
    <dc:creator>
     <cc:Agent>
      <dc:title>Matplotlib v3.5.2, https://matplotlib.org/</dc:title>
     </cc:Agent>
    </dc:creator>
   </cc:Work>
  </rdf:RDF>
 </metadata>
 <defs>
  <style type="text/css">*{stroke-linejoin: round; stroke-linecap: butt}</style>
 </defs>
 <g id="figure_1">
  <g id="patch_1">
   <path d="M 0 216 
L 576 216 
L 576 0 
L 0 0 
L 0 216 
z
" style="fill: none"/>
  </g>
  <g id="axes_1">
   <g id="patch_2">
    <path d="M 30.384 141.116 
L 540.1785 141.116 
L 540.1785 21.384 
L 30.384 21.384 
z
" style="fill: #ffffff"/>
   </g>
   <g id="patch_3">
    <path d="M 59.941612 33.3572 
L 59.941612 129.1428 
L 75.510314 129.1428 
L 75.510314 33.3572 
L 59.941612 33.3572 
z
" clip-path="url(#p3aaa4bde8f)" style="fill: #dfdf20; stroke: #4c4c4c; stroke-width: 2.25; stroke-linejoin: miter"/>
   </g>
   <g id="matplotlib.axis_1">
    <g id="xtick_1">
     <g id="line2d_1">
      <defs>
       <path id="m403ad71498" d="M 0 0 
L 0 9 
" style="stroke: #000000; stroke-width: 1.875"/>
      </defs>
      <g>
       <use xlink:href="#m403ad71498" x="49.359462" y="141.116" style="stroke: #000000; stroke-width: 1.875"/>
      </g>
     </g>
     <g id="text_1">
      <!-- 0.0 -->
      <g transform="translate(34.927376 167.407164)scale(0.1815 -0.1815)">
       <defs>
        <path id="DejaVuSans-30" d="M 2034 4250 
Q 1547 4250 1301 3770 
Q 1056 3291 1056 2328 
Q 1056 1369 1301 889 
Q 1547 409 2034 409 
Q 2525 409 2770 889 
Q 3016 1369 3016 2328 
Q 3016 3291 2770 3770 
Q 2525 4250 2034 4250 
z
M 2034 4750 
Q 2819 4750 3233 4129 
Q 3647 3509 3647 2328 
Q 3647 1150 3233 529 
Q 2819 -91 2034 -91 
Q 1250 -91 836 529 
Q 422 1150 422 2328 
Q 422 3509 836 4129 
Q 1250 4750 2034 4750 
z
" transform="scale(0.015625)"/>
        <path id="DejaVuSans-2e" d="M 684 794 
L 1344 794 
L 1344 0 
L 684 0 
L 684 794 
z
" transform="scale(0.015625)"/>
       </defs>
       <use xlink:href="#DejaVuSans-30"/>
       <use xlink:href="#DejaVuSans-2e" x="63.623047"/>
       <use xlink:href="#DejaVuSans-30" x="95.410156"/>
      </g>
     </g>
    </g>
    <g id="xtick_2">
     <g id="line2d_2">
      <g>
       <use xlink:href="#m403ad71498" x="131.162635" y="141.116" style="stroke: #000000; stroke-width: 1.875"/>
      </g>
     </g>
     <g id="text_2">
      <!-- 0.2 -->
      <g transform="translate(116.730549 167.407164)scale(0.1815 -0.1815)">
       <defs>
        <path id="DejaVuSans-32" d="M 1228 531 
L 3431 531 
L 3431 0 
L 469 0 
L 469 531 
Q 828 903 1448 1529 
Q 2069 2156 2228 2338 
Q 2531 2678 2651 2914 
Q 2772 3150 2772 3378 
Q 2772 3750 2511 3984 
Q 2250 4219 1831 4219 
Q 1534 4219 1204 4116 
Q 875 4013 500 3803 
L 500 4441 
Q 881 4594 1212 4672 
Q 1544 4750 1819 4750 
Q 2544 4750 2975 4387 
Q 3406 4025 3406 3419 
Q 3406 3131 3298 2873 
Q 3191 2616 2906 2266 
Q 2828 2175 2409 1742 
Q 1991 1309 1228 531 
z
" transform="scale(0.015625)"/>
       </defs>
       <use xlink:href="#DejaVuSans-30"/>
       <use xlink:href="#DejaVuSans-2e" x="63.623047"/>
       <use xlink:href="#DejaVuSans-32" x="95.410156"/>
      </g>
     </g>
    </g>
    <g id="xtick_3">
     <g id="line2d_3">
      <g>
       <use xlink:href="#m403ad71498" x="212.965808" y="141.116" style="stroke: #000000; stroke-width: 1.875"/>
      </g>
     </g>
     <g id="text_3">
      <!-- 0.4 -->
      <g transform="translate(198.533722 167.407164)scale(0.1815 -0.1815)">
       <defs>
        <path id="DejaVuSans-34" d="M 2419 4116 
L 825 1625 
L 2419 1625 
L 2419 4116 
z
M 2253 4666 
L 3047 4666 
L 3047 1625 
L 3713 1625 
L 3713 1100 
L 3047 1100 
L 3047 0 
L 2419 0 
L 2419 1100 
L 313 1100 
L 313 1709 
L 2253 4666 
z
" transform="scale(0.015625)"/>
       </defs>
       <use xlink:href="#DejaVuSans-30"/>
       <use xlink:href="#DejaVuSans-2e" x="63.623047"/>
       <use xlink:href="#DejaVuSans-34" x="95.410156"/>
      </g>
     </g>
    </g>
    <g id="xtick_4">
     <g id="line2d_4">
      <g>
       <use xlink:href="#m403ad71498" x="294.768981" y="141.116" style="stroke: #000000; stroke-width: 1.875"/>
      </g>
     </g>
     <g id="text_4">
      <!-- 0.6 -->
      <g transform="translate(280.336895 167.407164)scale(0.1815 -0.1815)">
       <defs>
        <path id="DejaVuSans-36" d="M 2113 2584 
Q 1688 2584 1439 2293 
Q 1191 2003 1191 1497 
Q 1191 994 1439 701 
Q 1688 409 2113 409 
Q 2538 409 2786 701 
Q 3034 994 3034 1497 
Q 3034 2003 2786 2293 
Q 2538 2584 2113 2584 
z
M 3366 4563 
L 3366 3988 
Q 3128 4100 2886 4159 
Q 2644 4219 2406 4219 
Q 1781 4219 1451 3797 
Q 1122 3375 1075 2522 
Q 1259 2794 1537 2939 
Q 1816 3084 2150 3084 
Q 2853 3084 3261 2657 
Q 3669 2231 3669 1497 
Q 3669 778 3244 343 
Q 2819 -91 2113 -91 
Q 1303 -91 875 529 
Q 447 1150 447 2328 
Q 447 3434 972 4092 
Q 1497 4750 2381 4750 
Q 2619 4750 2861 4703 
Q 3103 4656 3366 4563 
z
" transform="scale(0.015625)"/>
       </defs>
       <use xlink:href="#DejaVuSans-30"/>
       <use xlink:href="#DejaVuSans-2e" x="63.623047"/>
       <use xlink:href="#DejaVuSans-36" x="95.410156"/>
      </g>
     </g>
    </g>
    <g id="xtick_5">
     <g id="line2d_5">
      <g>
       <use xlink:href="#m403ad71498" x="376.572154" y="141.116" style="stroke: #000000; stroke-width: 1.875"/>
      </g>
     </g>
     <g id="text_5">
      <!-- 0.8 -->
      <g transform="translate(362.140068 167.407164)scale(0.1815 -0.1815)">
       <defs>
        <path id="DejaVuSans-38" d="M 2034 2216 
Q 1584 2216 1326 1975 
Q 1069 1734 1069 1313 
Q 1069 891 1326 650 
Q 1584 409 2034 409 
Q 2484 409 2743 651 
Q 3003 894 3003 1313 
Q 3003 1734 2745 1975 
Q 2488 2216 2034 2216 
z
M 1403 2484 
Q 997 2584 770 2862 
Q 544 3141 544 3541 
Q 544 4100 942 4425 
Q 1341 4750 2034 4750 
Q 2731 4750 3128 4425 
Q 3525 4100 3525 3541 
Q 3525 3141 3298 2862 
Q 3072 2584 2669 2484 
Q 3125 2378 3379 2068 
Q 3634 1759 3634 1313 
Q 3634 634 3220 271 
Q 2806 -91 2034 -91 
Q 1263 -91 848 271 
Q 434 634 434 1313 
Q 434 1759 690 2068 
Q 947 2378 1403 2484 
z
M 1172 3481 
Q 1172 3119 1398 2916 
Q 1625 2713 2034 2713 
Q 2441 2713 2670 2916 
Q 2900 3119 2900 3481 
Q 2900 3844 2670 4047 
Q 2441 4250 2034 4250 
Q 1625 4250 1398 4047 
Q 1172 3844 1172 3481 
z
" transform="scale(0.015625)"/>
       </defs>
       <use xlink:href="#DejaVuSans-30"/>
       <use xlink:href="#DejaVuSans-2e" x="63.623047"/>
       <use xlink:href="#DejaVuSans-38" x="95.410156"/>
      </g>
     </g>
    </g>
    <g id="xtick_6">
     <g id="line2d_6">
      <g>
       <use xlink:href="#m403ad71498" x="458.375327" y="141.116" style="stroke: #000000; stroke-width: 1.875"/>
      </g>
     </g>
     <g id="text_6">
      <!-- 1.0 -->
      <g transform="translate(443.943241 167.407164)scale(0.1815 -0.1815)">
       <defs>
        <path id="DejaVuSans-31" d="M 794 531 
L 1825 531 
L 1825 4091 
L 703 3866 
L 703 4441 
L 1819 4666 
L 2450 4666 
L 2450 531 
L 3481 531 
L 3481 0 
L 794 0 
L 794 531 
z
" transform="scale(0.015625)"/>
       </defs>
       <use xlink:href="#DejaVuSans-31"/>
       <use xlink:href="#DejaVuSans-2e" x="63.623047"/>
       <use xlink:href="#DejaVuSans-30" x="95.410156"/>
      </g>
     </g>
    </g>
    <g id="xtick_7">
     <g id="line2d_7">
      <g>
       <use xlink:href="#m403ad71498" x="540.1785" y="141.116" style="stroke: #000000; stroke-width: 1.875"/>
      </g>
     </g>
     <g id="text_7">
      <!-- 1.2 -->
      <g transform="translate(525.746414 167.407164)scale(0.1815 -0.1815)">
       <use xlink:href="#DejaVuSans-31"/>
       <use xlink:href="#DejaVuSans-2e" x="63.623047"/>
       <use xlink:href="#DejaVuSans-32" x="95.410156"/>
      </g>
     </g>
    </g>
    <g id="text_8">
     <!-- Prad (mW) -->
     <g transform="translate(232.760203 190.226703)scale(0.198 -0.198)">
      <defs>
       <path id="DejaVuSans-50" d="M 1259 4147 
L 1259 2394 
L 2053 2394 
Q 2494 2394 2734 2622 
Q 2975 2850 2975 3272 
Q 2975 3691 2734 3919 
Q 2494 4147 2053 4147 
L 1259 4147 
z
M 628 4666 
L 2053 4666 
Q 2838 4666 3239 4311 
Q 3641 3956 3641 3272 
Q 3641 2581 3239 2228 
Q 2838 1875 2053 1875 
L 1259 1875 
L 1259 0 
L 628 0 
L 628 4666 
z
" transform="scale(0.015625)"/>
       <path id="DejaVuSans-72" d="M 2631 2963 
Q 2534 3019 2420 3045 
Q 2306 3072 2169 3072 
Q 1681 3072 1420 2755 
Q 1159 2438 1159 1844 
L 1159 0 
L 581 0 
L 581 3500 
L 1159 3500 
L 1159 2956 
Q 1341 3275 1631 3429 
Q 1922 3584 2338 3584 
Q 2397 3584 2469 3576 
Q 2541 3569 2628 3553 
L 2631 2963 
z
" transform="scale(0.015625)"/>
       <path id="DejaVuSans-61" d="M 2194 1759 
Q 1497 1759 1228 1600 
Q 959 1441 959 1056 
Q 959 750 1161 570 
Q 1363 391 1709 391 
Q 2188 391 2477 730 
Q 2766 1069 2766 1631 
L 2766 1759 
L 2194 1759 
z
M 3341 1997 
L 3341 0 
L 2766 0 
L 2766 531 
Q 2569 213 2275 61 
Q 1981 -91 1556 -91 
Q 1019 -91 701 211 
Q 384 513 384 1019 
Q 384 1609 779 1909 
Q 1175 2209 1959 2209 
L 2766 2209 
L 2766 2266 
Q 2766 2663 2505 2880 
Q 2244 3097 1772 3097 
Q 1472 3097 1187 3025 
Q 903 2953 641 2809 
L 641 3341 
Q 956 3463 1253 3523 
Q 1550 3584 1831 3584 
Q 2591 3584 2966 3190 
Q 3341 2797 3341 1997 
z
" transform="scale(0.015625)"/>
       <path id="DejaVuSans-64" d="M 2906 2969 
L 2906 4863 
L 3481 4863 
L 3481 0 
L 2906 0 
L 2906 525 
Q 2725 213 2448 61 
Q 2172 -91 1784 -91 
Q 1150 -91 751 415 
Q 353 922 353 1747 
Q 353 2572 751 3078 
Q 1150 3584 1784 3584 
Q 2172 3584 2448 3432 
Q 2725 3281 2906 2969 
z
M 947 1747 
Q 947 1113 1208 752 
Q 1469 391 1925 391 
Q 2381 391 2643 752 
Q 2906 1113 2906 1747 
Q 2906 2381 2643 2742 
Q 2381 3103 1925 3103 
Q 1469 3103 1208 2742 
Q 947 2381 947 1747 
z
" transform="scale(0.015625)"/>
       <path id="DejaVuSans-20" transform="scale(0.015625)"/>
       <path id="DejaVuSans-28" d="M 1984 4856 
Q 1566 4138 1362 3434 
Q 1159 2731 1159 2009 
Q 1159 1288 1364 580 
Q 1569 -128 1984 -844 
L 1484 -844 
Q 1016 -109 783 600 
Q 550 1309 550 2009 
Q 550 2706 781 3412 
Q 1013 4119 1484 4856 
L 1984 4856 
z
" transform="scale(0.015625)"/>
       <path id="DejaVuSans-6d" d="M 3328 2828 
Q 3544 3216 3844 3400 
Q 4144 3584 4550 3584 
Q 5097 3584 5394 3201 
Q 5691 2819 5691 2113 
L 5691 0 
L 5113 0 
L 5113 2094 
Q 5113 2597 4934 2840 
Q 4756 3084 4391 3084 
Q 3944 3084 3684 2787 
Q 3425 2491 3425 1978 
L 3425 0 
L 2847 0 
L 2847 2094 
Q 2847 2600 2669 2842 
Q 2491 3084 2119 3084 
Q 1678 3084 1418 2786 
Q 1159 2488 1159 1978 
L 1159 0 
L 581 0 
L 581 3500 
L 1159 3500 
L 1159 2956 
Q 1356 3278 1631 3431 
Q 1906 3584 2284 3584 
Q 2666 3584 2933 3390 
Q 3200 3197 3328 2828 
z
" transform="scale(0.015625)"/>
       <path id="DejaVuSans-57" d="M 213 4666 
L 850 4666 
L 1831 722 
L 2809 4666 
L 3519 4666 
L 4500 722 
L 5478 4666 
L 6119 4666 
L 4947 0 
L 4153 0 
L 3169 4050 
L 2175 0 
L 1381 0 
L 213 4666 
z
" transform="scale(0.015625)"/>
       <path id="DejaVuSans-29" d="M 513 4856 
L 1013 4856 
Q 1481 4119 1714 3412 
Q 1947 2706 1947 2009 
Q 1947 1309 1714 600 
Q 1481 -109 1013 -844 
L 513 -844 
Q 928 -128 1133 580 
Q 1338 1288 1338 2009 
Q 1338 2731 1133 3434 
Q 928 4138 513 4856 
z
" transform="scale(0.015625)"/>
      </defs>
      <use xlink:href="#DejaVuSans-50"/>
      <use xlink:href="#DejaVuSans-72" x="58.552734"/>
      <use xlink:href="#DejaVuSans-61" x="99.666016"/>
      <use xlink:href="#DejaVuSans-64" x="160.945312"/>
      <use xlink:href="#DejaVuSans-20" x="224.421875"/>
      <use xlink:href="#DejaVuSans-28" x="256.208984"/>
      <use xlink:href="#DejaVuSans-6d" x="295.222656"/>
      <use xlink:href="#DejaVuSans-57" x="392.634766"/>
      <use xlink:href="#DejaVuSans-29" x="491.511719"/>
     </g>
    </g>
   </g>
   <g id="matplotlib.axis_2">
    <g id="ytick_1">
     <g id="line2d_8">
      <defs>
       <path id="ma78b39f5a3" d="M 0 0 
L -9 0 
" style="stroke: #000000; stroke-width: 1.875"/>
      </defs>
      <g>
       <use xlink:href="#ma78b39f5a3" x="30.384" y="81.25" style="stroke: #000000; stroke-width: 1.875"/>
      </g>
     </g>
    </g>
   </g>
   <g id="line2d_9">
    <path d="M 59.941612 81.25 
L 50.764539 81.25 
" clip-path="url(#p3aaa4bde8f)" style="fill: none; stroke: #4c4c4c; stroke-width: 2.25; stroke-linecap: square"/>
   </g>
   <g id="line2d_10">
    <path d="M 75.510314 81.25 
L 91.965239 81.25 
" clip-path="url(#p3aaa4bde8f)" style="fill: none; stroke: #4c4c4c; stroke-width: 2.25; stroke-linecap: square"/>
   </g>
   <g id="line2d_11">
    <path d="M 50.764539 57.3036 
L 50.764539 105.1964 
" clip-path="url(#p3aaa4bde8f)" style="fill: none; stroke: #4c4c4c; stroke-width: 2.25; stroke-linecap: square"/>
   </g>
   <g id="line2d_12">
    <path d="M 91.965239 57.3036 
L 91.965239 105.1964 
" clip-path="url(#p3aaa4bde8f)" style="fill: none; stroke: #4c4c4c; stroke-width: 2.25; stroke-linecap: square"/>
   </g>
   <g id="line2d_13"/>
   <g id="line2d_14">
    <path d="M 458.375327 141.116 
L 458.375327 21.384 
" clip-path="url(#p3aaa4bde8f)" style="fill: none; stroke-dasharray: 8.325,3.6; stroke-dashoffset: 0; stroke: #008000; stroke-width: 2.25"/>
   </g>
   <g id="line2d_15">
    <path d="M 68.749984 33.3572 
L 68.749984 129.1428 
" clip-path="url(#p3aaa4bde8f)" style="fill: none; stroke: #4c4c4c; stroke-width: 2.25; stroke-linecap: square"/>
   </g>
   <g id="patch_4">
    <path d="M 30.384 141.116 
L 30.384 21.384 
" style="fill: none; stroke: #000000; stroke-width: 1.875; stroke-linejoin: miter; stroke-linecap: square"/>
   </g>
   <g id="patch_5">
    <path d="M 540.1785 141.116 
L 540.1785 21.384 
" style="fill: none; stroke: #000000; stroke-width: 1.875; stroke-linejoin: miter; stroke-linecap: square"/>
   </g>
   <g id="patch_6">
    <path d="M 30.384 141.116 
L 540.1785 141.116 
" style="fill: none; stroke: #000000; stroke-width: 1.875; stroke-linejoin: miter; stroke-linecap: square"/>
   </g>
   <g id="patch_7">
    <path d="M 30.384 21.384 
L 540.1785 21.384 
" style="fill: none; stroke: #000000; stroke-width: 1.875; stroke-linejoin: miter; stroke-linecap: square"/>
   </g>
   <g id="PathCollection_1">
    <defs>
     <path id="C0_0_5789dfb93e" d="M 0 3.5 
C 0.928211 3.5 1.81853 3.131218 2.474874 2.474874 
C 3.131218 1.81853 3.5 0.928211 3.5 -0 
C 3.5 -0.928211 3.131218 -1.81853 2.474874 -2.474874 
C 1.81853 -3.131218 0.928211 -3.5 0 -3.5 
C -0.928211 -3.5 -1.81853 -3.131218 -2.474874 -2.474874 
C -3.131218 -1.81853 -3.5 -0.928211 -3.5 0 
C -3.5 0.928211 -3.131218 1.81853 -2.474874 2.474874 
C -1.81853 3.131218 -0.928211 3.5 0 3.5 
z
"/>
    </defs>
    <g clip-path="url(#p3aaa4bde8f)">
     <use xlink:href="#C0_0_5789dfb93e" x="50.764539" y="81.25" style="fill: #00008b; fill-opacity: 0.5"/>
    </g>
    <g clip-path="url(#p3aaa4bde8f)">
     <use xlink:href="#C0_0_5789dfb93e" x="53.617275" y="81.25" style="fill: #00008b; fill-opacity: 0.5"/>
    </g>
    <g clip-path="url(#p3aaa4bde8f)">
     <use xlink:href="#C0_0_5789dfb93e" x="53.874627" y="75.912055" style="fill: #00008b; fill-opacity: 0.5"/>
    </g>
    <g clip-path="url(#p3aaa4bde8f)">
     <use xlink:href="#C0_0_5789dfb93e" x="55.683032" y="81.25" style="fill: #00008b; fill-opacity: 0.5"/>
    </g>
    <g clip-path="url(#p3aaa4bde8f)">
     <use xlink:href="#C0_0_5789dfb93e" x="56.055698" y="75.976821" style="fill: #00008b; fill-opacity: 0.5"/>
    </g>
    <g clip-path="url(#p3aaa4bde8f)">
     <use xlink:href="#C0_0_5789dfb93e" x="58.230275" y="81.25" style="fill: #00008b; fill-opacity: 0.5"/>
    </g>
    <g clip-path="url(#p3aaa4bde8f)">
     <use xlink:href="#C0_0_5789dfb93e" x="59.344779" y="77.082229" style="fill: #00008b; fill-opacity: 0.5"/>
    </g>
    <g clip-path="url(#p3aaa4bde8f)">
     <use xlink:href="#C0_0_5789dfb93e" x="59.894751" y="82.956682" style="fill: #00008b; fill-opacity: 0.5"/>
    </g>
    <g clip-path="url(#p3aaa4bde8f)">
     <use xlink:href="#C0_0_5789dfb93e" x="60.082193" y="88.322109" style="fill: #00008b; fill-opacity: 0.5"/>
    </g>
    <g clip-path="url(#p3aaa4bde8f)">
     <use xlink:href="#C0_0_5789dfb93e" x="60.867549" y="74.401713" style="fill: #00008b; fill-opacity: 0.5"/>
    </g>
    <g clip-path="url(#p3aaa4bde8f)">
     <use xlink:href="#C0_0_5789dfb93e" x="63.095933" y="81.25" style="fill: #00008b; fill-opacity: 0.5"/>
    </g>
    <g clip-path="url(#p3aaa4bde8f)">
     <use xlink:href="#C0_0_5789dfb93e" x="63.504769" y="76.002236" style="fill: #00008b; fill-opacity: 0.5"/>
    </g>
    <g clip-path="url(#p3aaa4bde8f)">
     <use xlink:href="#C0_0_5789dfb93e" x="63.740842" y="86.268553" style="fill: #00008b; fill-opacity: 0.5"/>
    </g>
    <g clip-path="url(#p3aaa4bde8f)">
     <use xlink:href="#C0_0_5789dfb93e" x="66.454192" y="81.25" style="fill: #00008b; fill-opacity: 0.5"/>
    </g>
    <g clip-path="url(#p3aaa4bde8f)">
     <use xlink:href="#C0_0_5789dfb93e" x="68.37941" y="81.25" style="fill: #00008b; fill-opacity: 0.5"/>
    </g>
    <g clip-path="url(#p3aaa4bde8f)">
     <use xlink:href="#C0_0_5789dfb93e" x="69.120558" y="76.358778" style="fill: #00008b; fill-opacity: 0.5"/>
    </g>
    <g clip-path="url(#p3aaa4bde8f)">
     <use xlink:href="#C0_0_5789dfb93e" x="70.148712" y="81.25" style="fill: #00008b; fill-opacity: 0.5"/>
    </g>
    <g clip-path="url(#p3aaa4bde8f)">
     <use xlink:href="#C0_0_5789dfb93e" x="72.959388" y="81.25" style="fill: #00008b; fill-opacity: 0.5"/>
    </g>
    <g clip-path="url(#p3aaa4bde8f)">
     <use xlink:href="#C0_0_5789dfb93e" x="73.25999" y="75.93348" style="fill: #00008b; fill-opacity: 0.5"/>
    </g>
    <g clip-path="url(#p3aaa4bde8f)">
     <use xlink:href="#C0_0_5789dfb93e" x="73.328786" y="86.525354" style="fill: #00008b; fill-opacity: 0.5"/>
    </g>
    <g clip-path="url(#p3aaa4bde8f)">
     <use xlink:href="#C0_0_5789dfb93e" x="73.646484" y="70.669725" style="fill: #00008b; fill-opacity: 0.5"/>
    </g>
    <g clip-path="url(#p3aaa4bde8f)">
     <use xlink:href="#C0_0_5789dfb93e" x="75.242944" y="81.25" style="fill: #00008b; fill-opacity: 0.5"/>
    </g>
    <g clip-path="url(#p3aaa4bde8f)">
     <use xlink:href="#C0_0_5789dfb93e" x="75.599437" y="75.966254" style="fill: #00008b; fill-opacity: 0.5"/>
    </g>
    <g clip-path="url(#p3aaa4bde8f)">
     <use xlink:href="#C0_0_5789dfb93e" x="76.845488" y="83.446983" style="fill: #00008b; fill-opacity: 0.5"/>
    </g>
    <g clip-path="url(#p3aaa4bde8f)">
     <use xlink:href="#C0_0_5789dfb93e" x="83.933258" y="81.25" style="fill: #00008b; fill-opacity: 0.5"/>
    </g>
    <g clip-path="url(#p3aaa4bde8f)">
     <use xlink:href="#C0_0_5789dfb93e" x="91.965239" y="81.25" style="fill: #00008b; fill-opacity: 0.5"/>
    </g>
    <g clip-path="url(#p3aaa4bde8f)">
     <use xlink:href="#C0_0_5789dfb93e" x="110.360501" y="81.25" style="fill: #00008b; fill-opacity: 0.5"/>
    </g>
    <g clip-path="url(#p3aaa4bde8f)">
     <use xlink:href="#C0_0_5789dfb93e" x="124.899448" y="81.25" style="fill: #00008b; fill-opacity: 0.5"/>
    </g>
    <g clip-path="url(#p3aaa4bde8f)">
     <use xlink:href="#C0_0_5789dfb93e" x="134.315407" y="81.25" style="fill: #00008b; fill-opacity: 0.5"/>
    </g>
    <g clip-path="url(#p3aaa4bde8f)">
     <use xlink:href="#C0_0_5789dfb93e" x="152.48211" y="81.25" style="fill: #00008b; fill-opacity: 0.5"/>
    </g>
   </g>
  </g>
 </g>
 <defs>
  <clipPath id="p3aaa4bde8f">
   <rect x="30.384" y="21.384" width="509.7945" height="119.732"/>
  </clipPath>
 </defs>
</svg>
